<?xml version="1.0" encoding="utf-8"?>
<!-- Generator: Adobe Illustrator 18.0.0, SVG Export Plug-In . SVG Version: 6.00 Build 0)  -->
<!DOCTYPE svg PUBLIC "-//W3C//DTD SVG 1.1//EN" "http://www.w3.org/Graphics/SVG/1.1/DTD/svg11.dtd">
<svg version="1.1" id="Layer_1" xmlns="http://www.w3.org/2000/svg" xmlns:xlink="http://www.w3.org/1999/xlink" x="0px" y="0px"
	 viewBox="0 0 43 41.1" enable-background="new 0 0 43 41.1" xml:space="preserve">
<g>
	<path fill="#84DBFF" d="M36.5,20.5c0,1.2-0.7,2.2-1.8,2.7L10.4,33.3c-1,0.4-2.2,0.3-3-0.5c-0.8-0.7-1.2-1.8-0.9-2.9l2.2-8.5
		l0.2-0.9l-0.2-0.9l-2.2-8.5C6.2,10.1,6.6,9,7.4,8.2c0.8-0.7,2-0.9,3-0.5l24.3,10.1C35.9,18.3,36.5,19.3,36.5,20.5z"/>
	<path fill="#54C9EB" d="M8.7,21.4l-2.2,8.5c-0.3,1.1,0.1,2.2,0.9,2.9c0.9,0.7,2,0.9,3,0.5l24.3-10.1c1.1-0.5,1.8-1.5,1.8-2.7H8.9
		L8.7,21.4z"/>
	<path fill="#EFEFEF" d="M20.1,20.5c0,0.5-0.4,0.9-0.9,0.9H8.7l0.2-0.9l-0.2-0.9h10.6C19.7,19.6,20.1,20,20.1,20.5z"/>
	<path fill="#C5D8DF" d="M8.7,21.4h10.6c0.5,0,0.9-0.4,0.9-0.9H8.9L8.7,21.4z"/>
</g>
</svg>
